<svg xmlns="http://www.w3.org/2000/svg" xmlns:xlink="http://www.w3.org/1999/xlink" width="323.105" height="153.651" viewBox="0 0 323.105 153.651">
  <defs>
    <filter id="Path_23" x="0" y="0" width="323.105" height="153.651" filterUnits="userSpaceOnUse">
      <feOffset dx="10" dy="12" input="SourceAlpha"/>
      <feGaussianBlur stdDeviation="3" result="blur"/>
      <feFlood flood-opacity="0.161"/>
      <feComposite operator="in" in2="blur"/>
      <feComposite in="SourceGraphic"/>
    </filter>
  </defs>
  <g transform="matrix(1, 0, 0, 1, 0, 0)" filter="url(#Path_23)">
    <g id="Path_23-2" data-name="Path 23" transform="translate(79 19.23)" fill="#dfd57d" opacity="0.18">
      <path d="M 167.9233703613281 112.9168167114258 C 161.596923828125 112.9170608520508 152.6901245117188 111.3869400024414 141.4137573242188 109.4497756958008 C 122.7169189453125 106.2377700805664 97.11075592041016 101.8388519287109 66.82324981689453 101.8388519287109 C 53.22154235839844 101.8388519287109 41.60921096801758 102.6563110351562 32.30883407592773 104.2684783935547 C 24.98758506774902 105.53759765625 20.36258888244629 107.0879974365234 17.54917526245117 108.3402938842773 C 18.35458183288574 106.6657943725586 19.00498008728027 104.6899185180664 19.48879432678223 102.4441452026367 C 19.58579444885254 101.9944839477539 19.44296073913574 101.6979370117188 19.30608558654785 101.5283966064453 C 19.05008506774902 101.211311340332 18.59975242614746 101.0571441650391 17.92933654785156 101.0571441650391 C 16.24746131896973 101.0571441650391 13.09054374694824 101.9828109741211 9.093752861022949 103.1546859741211 C 3.56262731552124 104.776481628418 -3.321039199829102 106.7948532104492 -8.232664108276367 106.7952728271484 C -10.23158073425293 106.7954406738281 -11.76070594787598 106.4559783935547 -12.77758121490479 105.7863159179688 C -13.88270568847656 105.0585250854492 -14.41991424560547 103.9308547973633 -14.41991424560547 102.3388519287109 C -14.41991424560547 99.60002136230469 -16.12620544433594 97.57168579101562 -19.49141502380371 96.31018829345703 C -22.30387306213379 95.25585174560547 -26.35537338256836 94.72127532958984 -31.53328895568848 94.72127532958984 C -41.37958145141602 94.72127532958984 -53.79628753662109 96.66118621826172 -62.4787483215332 98.28860473632812 C -70.01183319091797 99.70059967041016 -76.11392974853516 101.1277847290039 -78.27689361572266 101.6480560302734 C -77.80020141601562 100.0809478759766 -76.59487915039062 96.38230133056641 -74.48391723632812 91.51406097412109 C -72.82991790771484 87.69969177246094 -70.95174407958984 83.92414855957031 -68.90149688720703 80.29219055175781 C -66.33999633789062 75.75452423095703 -63.50120544433594 71.42960357666016 -60.46399688720703 67.43756103515625 C -52.74058151245117 57.28606414794922 -43.70266342163086 49.19931411743164 -33.60137176513672 43.40198135375977 C -27.60716438293457 39.96177291870117 -21.16587257385254 37.29939651489258 -14.45641422271729 35.48873138427734 C -7.073289394378662 33.49631500244141 0.8185857534408569 32.48606491088867 9.000002861022949 32.48606491088867 C 24.38462829589844 32.48606491088867 45.61887741088867 22.7617301940918 70.20613098144531 11.50189685821533 C 101.1537933349609 -2.670727729797363 136.2306671142578 -18.73431205749512 168.0409545898438 -18.73431205749512 C 173.8463745117188 -18.73431205749512 179.4332122802734 -18.18656158447266 184.6463317871094 -17.1063117980957 C 189.6765441894531 -16.06393623352051 194.2756652832031 -14.80935287475586 198.31591796875 -13.3774356842041 C 202.2100372314453 -11.99726963043213 205.7046661376953 -10.40993595123291 208.7026672363281 -8.659394264221191 C 211.5768737792969 -6.981185913085938 214.0852508544922 -5.099977970123291 216.1580810546875 -3.067936182022095 C 218.1349639892578 -1.130019426345825 219.7811279296875 1.009563803672791 221.0507965087891 3.291397094726562 C 222.9712066650391 6.742647171020508 224.088134765625 10.53564739227295 224.46533203125 14.88706398010254 C 224.8035888671875 18.78873062133789 224.5355834960938 23.05910491943359 223.64599609375 27.94223022460938 C 221.9843292236328 37.06348037719727 218.3218841552734 47.06806564331055 214.7800445556641 56.74322891235352 C 209.7260437011719 70.54901885986328 204.5 84.82481384277344 204.5 97.64868927001953 C 204.5 101.2929840087891 202.3172454833984 102.9905242919922 197.6307525634766 102.9909362792969 C 194.4518737792969 102.9911880493164 190.6726226806641 102.2085647583008 187.3382568359375 101.5181045532227 C 184.6373748779297 100.9588165283203 182.3048400878906 100.4758148193359 180.6888427734375 100.4758148193359 C 179.6182098388672 100.4758148193359 178.9354553222656 100.6883544921875 178.5400848388672 101.144775390625 C 178.2557525634766 101.4730224609375 178.1489562988281 101.8987731933594 178.2226715087891 102.4101867675781 L 178.2243347167969 102.4218978881836 L 178.2265930175781 102.4335250854492 C 178.9107971191406 105.9822692871094 178.5813293457031 108.5093154907227 177.2193756103516 110.159065246582 C 175.666259765625 112.0403137207031 172.7123718261719 112.9166488647461 167.9233703613281 112.9168167114258 Z M 13.83430290222168 111.7514495849609 C 13.97147274017334 111.6180877685547 14.14207553863525 111.4678268432617 14.35269451141357 111.3024368286133 C 14.1645393371582 111.4859085083008 13.99035263061523 111.6340789794922 13.83430290222168 111.7514495849609 Z" stroke="none"/>
      <path d="M 168.0410003662109 -18.23433685302734 C 136.3397216796875 -18.23433685302734 101.315544128418 -2.194831848144531 70.41431427001953 11.95652770996094 C 45.77386474609375 23.24071502685547 24.49368286132812 32.98607635498047 9 32.98607635498047 C 0.86663818359375 32.98607635498047 -6.977676391601562 33.98948287963867 -14.31504821777344 35.96848297119141 C -20.98045349121094 37.76625823974609 -27.37959289550781 40.40966796875 -33.33464050292969 43.82539367675781 C -43.37568664550781 49.58475875854492 -52.36241149902344 57.62166595458984 -60.04522705078125 67.712890625 C -63.06941223144531 71.68511962890625 -65.89649963378906 75.98930358886719 -68.44790649414062 80.50575256347656 C -70.4910888671875 84.12252807617188 -72.36300659179688 87.88275909423828 -74.01171875 91.68198394775391 C -75.80758666992188 95.82025909423828 -76.94635009765625 99.11063385009766 -77.53741455078125 100.9578399658203 C -74.86117553710938 100.3255615234375 -69.2818603515625 99.05506134033203 -62.57086181640625 97.79716491699219 C -53.86759948730469 96.16584777832031 -41.41799926757812 94.22126007080078 -31.53327941894531 94.22126007080078 C -26.29522705078125 94.22126007080078 -22.18467712402344 94.76653289794922 -19.31587219238281 95.84198760986328 C -15.73536682128906 97.18421173095703 -13.91990661621094 99.37007141113281 -13.91990661621094 102.3388519287109 C -13.91990661621094 103.7495269775391 -13.45631408691406 104.7405776977539 -12.50259399414062 105.3685760498047 C -11.56881713867188 105.9834823608398 -10.13223266601562 106.2952575683594 -8.232635498046875 106.2952575683594 C -3.392547607421875 106.2952575683594 3.453323364257812 104.2878494262695 8.95404052734375 102.6748504638672 C 12.98886108398438 101.4916687011719 16.17576599121094 100.5571670532227 17.9293212890625 100.5571670532227 C 18.23486328125 100.5571670532227 19.16464233398438 100.5571670532227 19.69512939453125 101.2143478393555 C 19.98541259765625 101.5738906860352 20.08572387695312 102.0481643676758 19.97758483886719 102.5494384765625 C 19.59358215332031 104.3318710327148 19.10530090332031 105.9494247436523 18.51832580566406 107.386962890625 C 25.13787841796875 104.7266540527344 39.02886962890625 101.3388519287109 66.82322692871094 101.3388519287109 C 97.15467834472656 101.3388519287109 122.7857666015625 105.7420272827148 141.5008239746094 108.9570770263672 C 152.7526397705078 110.8900299072266 161.6400451660156 112.4168014526367 167.9234008789062 112.4168014526367 C 170.2547302246094 112.4168014526367 172.1057739257812 112.2079849243164 173.582275390625 111.7784423828125 C 175.0451354980469 111.3528442382812 176.1086730957031 110.7190780639648 176.8336791992188 109.8409423828125 C 178.0948181152344 108.3134384155273 178.3898620605469 105.9213943481445 177.7356414794922 102.5281677246094 L 177.7277679443359 102.4814834594727 C 177.6090393066406 101.6576232910156 177.8984985351562 101.1218032836914 178.1621856689453 100.8173904418945 C 178.8156280517578 100.0630264282227 179.9171295166016 99.97579956054688 180.6888580322266 99.97579956054688 C 182.3562316894531 99.97579956054688 184.7123565673828 100.4636688232422 187.4405059814453 101.0285263061523 C 190.7510833740234 101.713981628418 194.5033569335938 102.4909362792969 197.6307678222656 102.4909362792969 C 199.7102661132812 102.4909362792969 201.2871398925781 102.1372146606445 202.3175964355469 101.4395751953125 C 203.4496765136719 100.6730728149414 204 99.43307495117188 204 97.64866638183594 C 204 84.73616790771484 209.2415466308594 70.41802978515625 214.3105010986328 56.57134628295898 C 217.8451385498047 46.91593933105469 221.5000915527344 36.93175888061523 223.1540832519531 27.85262298583984 C 224.0355834960938 23.01389312744141 224.3015899658203 18.78694152832031 223.9672241210938 14.93025970458984 C 223.5961761474609 10.65048217773438 222.4993133544922 6.922935485839844 220.6139068603516 3.534530639648438 C 219.3675384521484 1.294662475585938 217.7506408691406 -0.806610107421875 215.8080902099609 -2.71087646484375 C 213.7646331787109 -4.714057922363281 211.2892303466797 -6.570152282714844 208.4505920410156 -8.227607727050781 C 205.4795379638672 -9.962379455566406 202.0135498046875 -11.53642272949219 198.1489105224609 -12.90615081787109 C 194.1300048828125 -14.33046722412109 189.5529479980469 -15.57888031005859 184.5449066162109 -16.61669921875 C 179.3649597167969 -17.6900634765625 173.8122253417969 -18.23433685302734 168.0410003662109 -18.23433685302734 M 168.0409851074219 -19.23432159423828 C 173.7319183349609 -19.23432159423828 179.3091735839844 -18.722900390625 184.7478179931641 -17.59587860107422 C 261.6590881347656 -1.658058166503906 205 55.44198608398438 205 97.64866638183594 C 205 108.4408721923828 186.8171997070312 100.9757995605469 180.6888427734375 100.9757995605469 C 179.3380889892578 100.9757995605469 178.5733642578125 101.338264465332 178.7175445556641 102.3388519287109 C 183.5233154296875 127.2642593383789 139.1813507080078 102.3388519287109 66.82322692871094 102.3388519287109 C 36.4119873046875 102.3388519287109 22.23521423339844 106.4279479980469 16.38883972167969 109.4497985839844 C 17.35008239746094 107.8367919921875 18.3131103515625 105.5272064208984 19 102.3388519287109 C 19.713623046875 99.03041076660156 1.852340698242188 107.2952499389648 -8.232635498046875 107.2952499389648 C -12.16938781738281 107.2952499389648 -14.91990661621094 106.036735534668 -14.91990661621094 102.3388519287109 C -14.91993713378906 86.32425689697266 -79.00003051757812 102.3388519287109 -79 102.3388519287109 C -79 102.3388519287109 -60.02122497558594 31.98607635498047 9 31.98607635498047 C 43.80471801757812 31.98607635498047 111.1545028686523 -19.23432159423828 168.0409851074219 -19.23432159423828 Z M 16.38883972167969 109.4497985839844 C 13.30484008789062 114.6247711181641 10.2410888671875 112.6274261474609 16.38883972167969 109.4497985839844 Z" stroke="none" fill="#161d2d"/>
    </g>
  </g>
</svg>
