<svg xmlns="http://www.w3.org/2000/svg" width="102.296" height="104.56" viewBox="0 0 102.296 104.56">
  <g id="Group_1" data-name="Group 1" transform="translate(0 0)">
    <path id="Path_9" data-name="Path 9" d="M83.815,188.863c-5.66-.216-12.056,4.868-11.832,11.818-.365,6.363,5.24,11.724,11.626,11.839A11.828,11.828,0,0,0,95.47,201.063,11.973,11.973,0,0,0,83.815,188.863Z" transform="translate(-43.855 -110.209)" fill="none"/>
    <path id="Path_10" data-name="Path 10" d="M158.1,188.89a11.826,11.826,0,1,0-.058,23.652,11.84,11.84,0,0,0,11.788-11.851C169.895,194.02,163.914,188.925,158.1,188.89Z" transform="translate(-89.111 -110.227)" fill="none"/>
    <path id="Path_11" data-name="Path 11" d="M121.888,186.786a14.66,14.66,0,0,0-11.788-2.629,12.558,12.558,0,0,0-9.7,7.787,15.8,15.8,0,0,0-.742,2.3.214.214,0,0,1-.055,0c-.05-.022-.1-.043-.151-.068a5.231,5.231,0,0,0-3.485-.551c-.6.115-1.209.18-1.812.276-.175.028-.253-.024-.3-.2a13.343,13.343,0,0,0-5.084-7.222,12.352,12.352,0,0,0-6.448-2.554,17.544,17.544,0,0,0-3.993.158,12.633,12.633,0,0,0-7.807,3.88,14.768,14.768,0,0,0-3.654,6.6,13.421,13.421,0,0,0-.564,3.711,14.537,14.537,0,0,0,2.529,7.41,13.035,13.035,0,0,0,4.234,4.233A14.077,14.077,0,0,0,83.3,211.65a13.257,13.257,0,0,0,9.288-6.546,15.757,15.757,0,0,0,2.018-7.583,1.549,1.549,0,0,1,.538-1.173,2.229,2.229,0,0,1,1.783-.636A1.893,1.893,0,0,1,99,197.426a23.023,23.023,0,0,1,.315,2.446,12.721,12.721,0,0,0,1.8,5.387,14.094,14.094,0,0,0,14.91,6.381,13.722,13.722,0,0,0,9.434-6.7,14.045,14.045,0,0,0,1.717-8.844A12.792,12.792,0,0,0,121.888,186.786ZM80.43,209.712c-6.386-.115-11.99-5.476-11.626-11.839-.224-6.949,6.172-12.034,11.832-11.818a11.972,11.972,0,0,1,11.655,12.2A11.828,11.828,0,0,1,80.43,209.712Zm32.779,0a11.826,11.826,0,1,1,.058-23.652c5.815.036,11.8,5.131,11.729,11.8a11.84,11.84,0,0,1-11.788,11.851Z" transform="translate(-42.759 -107.4)" fill="#ffe783"/>
    <path id="Path_12" data-name="Path 12" d="M102.25,68.935c-.421-4.019-2.987-6.587-6.551-6.428a13.82,13.82,0,0,0-5.125,1.3,46.449,46.449,0,0,1-7.811,2.9c-1.4.353-1.561.289-2.316-.98a123.538,123.538,0,0,1-7.6-14.848A51.292,51.292,0,0,1,69.4,40.856a5.357,5.357,0,0,1,.086-3.546,2.213,2.213,0,0,0-.288-2.455,12.08,12.08,0,0,1-.979-1.528c-1.9-3.673-3.564-7.462-5.272-11.231-.606-1.339-.444-1.9.781-2.615A10.138,10.138,0,0,0,66.4,17.474a1.279,1.279,0,0,0,.229-1.6,4.783,4.783,0,0,1-.563-1.823c-.07-.8.22-1.143.99-1.193,3.688-.241,7.355-.712,11.028-1.126a4.5,4.5,0,0,0,2.463-1.041,1.059,1.059,0,0,0,.057-1.768A5.493,5.493,0,0,0,78.96,7.909a44.364,44.364,0,0,0-6.021-2.186A21.846,21.846,0,0,1,64.31,1.318,8.117,8.117,0,0,0,62.864.41,3.2,3.2,0,0,0,60.777.034a57.547,57.547,0,0,0-8.564,1.912A7.871,7.871,0,0,0,46.3,8.411c-.054.288-.168.563-.224.851-.391,2.032-1.208,3.97-1.08,6.122a1.576,1.576,0,0,1-1.472,1.752,7.285,7.285,0,0,1-1.449.187,1.782,1.782,0,0,0-1.738,1.3,93.469,93.469,0,0,0-3.846,10.564,5.182,5.182,0,0,1-3.259,3.495,1.127,1.127,0,0,0-.84,1.152,16.047,16.047,0,0,0,.356,4.152,25.648,25.648,0,0,1,.688,5.246,37.254,37.254,0,0,1-1.484,10.859,2.1,2.1,0,0,0,.029,1.775.948.948,0,0,1-.121.988,9.492,9.492,0,0,1-2.106,2.537,1.646,1.646,0,0,1-1.274.467c-.6-.093-.772.176-.789.745a52.109,52.109,0,0,0,.124,6.349,39.444,39.444,0,0,1,.243,5.538c-.114,2.384-1.175,3.554-3.467,3.784a14.747,14.747,0,0,1-3.379-.08A56,56,0,0,0,9.08,75.637,16.246,16.246,0,0,0,3.12,77.08,5.042,5.042,0,0,0,.145,80.538a5.221,5.221,0,0,0,1.929,5.4,12.942,12.942,0,0,0,4.662,2.4c4.89,1.539,9.932,1.826,14.991,1.95A52.9,52.9,0,0,0,33.5,89.068c5.794-1.179,11.449-2.916,17.1-4.654,5.186-1.594,10.343-3.295,15.629-4.515a80.1,80.1,0,0,1,10.142-1.315,88.175,88.175,0,0,0,18.244-4.058A30.773,30.773,0,0,0,100.8,71.9,2.741,2.741,0,0,0,102.25,68.935ZM51.861,6.238a.792.792,0,0,1,1.058.509A4.909,4.909,0,0,0,53.807,8.5a5.105,5.105,0,0,1,.705,2.18,14.91,14.91,0,0,0,.246,1.5,1.869,1.869,0,0,0,2.221,1.493.556.556,0,0,0,.494-.605v0c.017-.587.005-1.175.005-1.764h-.066c0-.508-.005-1.016,0-1.524,0-.183-.006-.4.215-.464a.412.412,0,0,1,.492.287,1.506,1.506,0,0,1,.23.667,3.148,3.148,0,0,0,.985,2.27c.54.644,1.115,1.258,1.624,1.927.3.39.433.793-.259,1.017-.509.166-.658.565-.233,1.045.11.125.3.276.123.475-.138.157-.331.112-.5.047a1.314,1.314,0,0,1-.634-.56c-.186-.288-.345-.6-.547-.871-.778-1.056-1.583-1-2.219.131a3.463,3.463,0,0,1-.739,1.11c-.28.225-.562.161-.5-.214a3.215,3.215,0,0,0-1.612-3.321,1.725,1.725,0,0,1-.535-1.45,5.449,5.449,0,0,0-1.141-3.72,7.642,7.642,0,0,1-.469-.913.722.722,0,0,1,.14-.98ZM37.154,33.355c.215-.359.288-.86.905-.919a1.887,1.887,0,0,1,.456-.01c3.184.488,6.321,1.16,8.645,3.3,2.4,2.213,4.641,4.567,6.971,6.845.591.579,1.26,1.094,1.881,1.649a1.833,1.833,0,0,0,2.08.3A47.455,47.455,0,0,0,63.98,41.43c.794-.451,1.563-.942,2.382-1.354,1.158-.583,1.719-.267,1.69.9a4.105,4.105,0,0,1-1.361,3.074,37.786,37.786,0,0,1-3.259,2.593c-1.107.818-1.1.9.05,1.613a5.352,5.352,0,0,1,1.167.9c.129.142.353.3.228.485s-.39.114-.588.069a9.407,9.407,0,0,1-2.42-.93c-.882-.48-1.738-.995-2.615-1.481a5.421,5.421,0,0,0-6.1.057,73.823,73.823,0,0,1-6.838,3.572,2.146,2.146,0,0,1-.405.185c-.269.075-.593.365-.81.059-.146-.207.185-.418.359-.587a11.933,11.933,0,0,1,3.3-2.138,8.954,8.954,0,0,0,1.087-.59.754.754,0,0,0,.282-.989,2.355,2.355,0,0,0-2.442-1.67c-.485-.031-.964-.137-1.448-.187a3.473,3.473,0,0,1-2.848-1.728,14.281,14.281,0,0,0-5.232-5.045c-1.026-.577-.974-.661.117-1.148a7.323,7.323,0,0,0,1.744-1.026c.419-.35.388-.644-.148-.848a9.675,9.675,0,0,1-2.29-1.16c-.247-.18-.64-.346-.426-.7Zm16.709,27.2a69.429,69.429,0,0,0-7.2,1.479,22.185,22.185,0,0,1,2.221,2.556c.277.392.277.392-.159.587l-4.144,1.862a3.011,3.011,0,0,0,.447.606c.809.911,1.627,1.813,2.431,2.729a8.48,8.48,0,0,1,1.121,1.583.633.633,0,0,1-.078.843c-.37.4-.355.435-.761.06A55.17,55.17,0,0,1,42.983,67.7a16.435,16.435,0,0,1-1.042-1.352c1.632-.34,2.922-1.508,4.57-1.709a2.386,2.386,0,0,0-.431-.92,10.289,10.289,0,0,0-1.018-1.243A70.99,70.99,0,0,0,35.5,65.968a13.039,13.039,0,0,0-2.511,1.9l-1.5-2.429c.1-.049.141-.093.177-.086a10.163,10.163,0,0,0,6.947-1.345c1.763-.928,3.538-1.832,5.315-2.731a13.388,13.388,0,0,1-.971-1.14,4.634,4.634,0,0,1-.623-1.089c-.055-.143-.08-.253.122-.288a2,2,0,0,0,.963-.515c.107-.094.164-.1.244.049a11.75,11.75,0,0,0,1.635,2.29c2.63-1.326,5.264-2.644,7.878-4a16.182,16.182,0,0,1,6.866-1.821c2.563-.113,5.125-.207,7.691-.195a1.036,1.036,0,0,1,.9.464,27.425,27.425,0,0,0,3.322,3.786c.377.337.814,1.134,1.459.26.076-.1.248,0,.346.085a3.068,3.068,0,0,1,.562.54c.289.425.767.89.455,1.426-.3.508-.814.063-1.194-.025A52.229,52.229,0,0,0,53.863,60.553Zm45.921,9.985a16.441,16.441,0,0,1-3.278,1.235,191.725,191.725,0,0,1-18.9,4.015c-2.718.483-5.449.915-8.179,1.35a7.618,7.618,0,0,1-2.543.031c-.244-.044-.542-.117-.6-.336-.069-.254.247-.347.451-.455,1.958-1.038,4.069-1.824,6.139-2.676q7.917-3.26,15.846-6.5a17.245,17.245,0,0,1,5.715-1.38c3.324-.023,5.324,1.226,5.974,3.366A1.016,1.016,0,0,1,99.784,70.538Z" transform="translate(0 0.006)" fill="#9cb0dc"/>
  </g>
</svg>
